<?xml version="1.0" encoding="UTF-8" standalone="no"?>
<!-- Created with Inkscape (http://www.inkscape.org/) -->

<svg
   xmlns:dc="http://purl.org/dc/elements/1.1/"
   xmlns:cc="http://creativecommons.org/ns#"
   xmlns:rdf="http://www.w3.org/1999/02/22-rdf-syntax-ns#"
   xmlns:svg="http://www.w3.org/2000/svg"
   xmlns="http://www.w3.org/2000/svg"
   xmlns:sodipodi="http://sodipodi.sourceforge.net/DTD/sodipodi-0.dtd"
   xmlns:inkscape="http://www.inkscape.org/namespaces/inkscape"
   width="210mm"
   height="297mm"
   viewBox="0 0 744.09448819 1052.3622047"
   id="svg2"
   version="1.1"
   inkscape:version="0.91 r13725"
   sodipodi:docname="drawing.svg">
  <defs
     id="defs4" />
  <sodipodi:namedview
     id="base"
     pagecolor="#ffffff"
     bordercolor="#666666"
     borderopacity="1.0"
     inkscape:pageopacity="0.0"
     inkscape:pageshadow="2"
     inkscape:zoom="0.35"
     inkscape:cx="375"
     inkscape:cy="520"
     inkscape:document-units="px"
     inkscape:current-layer="layer1"
     showgrid="false"
     inkscape:window-width="1215"
     inkscape:window-height="1000"
     inkscape:window-x="65"
     inkscape:window-y="24"
     inkscape:window-maximized="1" />
  <metadata
     id="metadata7">
    <rdf:RDF>
      <cc:Work
         rdf:about="">
        <dc:format>image/svg+xml</dc:format>
        <dc:type
           rdf:resource="http://purl.org/dc/dcmitype/StillImage" />
        <dc:title></dc:title>
      </cc:Work>
    </rdf:RDF>
  </metadata>
  <g
     inkscape:label="Layer 1"
     inkscape:groupmode="layer"
     id="layer1">
    <path
       style="fill:none;fill-rule:evenodd;stroke:#000000;stroke-width:1px;stroke-linecap:butt;stroke-linejoin:miter;stroke-opacity:1"
       d="m 588.57143,129.50506 c -4.76191,-1.90476 -9.69844,-3.42065 -14.28572,-5.71428 -8.71303,-4.35652 5.22556,-2.26504 -8.57142,-5.71429 -1.84789,-0.46197 -3.84652,0.37355 -5.71429,0 -14.86343,-2.97269 -2.85714,-1.90476 -14.28571,-5.71429 -0.90351,-0.30116 -2.18371,0.67344 -2.85715,0 -0.67343,-0.67343 0.85184,-2.43122 0,-2.85714 -1.70367,-0.85183 -3.90727,0.60234 -5.71428,0 -1.27776,-0.42592 -1.65247,-2.2548 -2.85715,-2.85714 -0.85183,-0.42592 -1.90476,0 -2.85714,0 -1.90476,0 -3.86639,0.46197 -5.71428,0 -2.06601,-0.5165 -3.61368,-2.50704 -5.71429,-2.85714 -3.75769,-0.62629 -7.61905,0 -11.42857,0 -4.76191,0 -9.52381,0 -14.28572,0 -5.71428,0 -11.42857,0 -17.14285,0 -1.90476,0 -3.83544,-0.31314 -5.71429,0 -3.87334,0.64555 -7.55523,2.21158 -11.42857,2.85714 -1.87885,0.31314 -3.84651,-0.37356 -5.71429,0 -2.9532,0.59064 -5.60071,2.36202 -8.57142,2.85714 -2.81827,0.46971 -5.71429,0 -8.57143,0 -2.85715,0.95238 -5.61822,2.2665 -8.57143,2.85714 -3.96826,0.79366 -10.71429,-1.19047 -14.28572,0 -0.9035,0.30117 0.67344,2.18371 0,2.85715 -1.34687,1.34687 -4.01061,-0.85184 -5.71428,0 -1.20468,0.60234 -1.65247,2.2548 -2.85714,2.85714 -0.85184,0.42592 -2.00531,-0.42592 -2.85715,0 -1.20467,0.60234 -1.65246,2.2548 -2.85714,2.85714 -0.85184,0.42592 -2.18371,-0.67343 -2.85714,0 -3.47996,3.47996 -1.33835,6.38346 -5.71429,8.57143 -0.85183,0.42592 -2.00531,-0.42592 -2.85714,0 -3.07134,1.53567 -5.62692,3.94758 -8.57143,5.71429 -1.82611,1.09566 -4.01061,1.57939 -5.71429,2.85714 -4.94617,3.70963 -9.21495,10.90521 -14.28571,14.28571 -0.79243,0.52829 -2.00531,-0.42591 -2.85714,0 -2.5324,1.2662 -5.97053,6.8375 -8.57143,8.57143 -1.77193,1.18129 -4.20844,1.3513 -5.71429,2.85715 -0.67343,0.67343 0.67344,2.1837 0,2.85714 -1.50584,1.50585 -3.94236,1.67586 -5.71428,2.85714 -1.12067,0.74711 -1.65247,2.25481 -2.85715,2.85714 -0.85183,0.42592 -2.1837,-0.67343 -2.85714,0 -1.34687,1.34687 0.85184,4.01062 0,5.71429 -0.60234,1.20468 -2.2548,1.65247 -2.85714,2.85714 -0.42592,0.85184 0.42592,2.00531 0,2.85715 -1.71429,3.42857 -6.85714,5.14285 -8.57143,8.57142 -0.42592,0.85184 0,1.90477 0,2.85715 -0.95238,0.95238 -2.2548,1.65246 -2.85714,2.85714 -1.14286,2.28571 1.14285,6.28571 0,8.57143 -0.60234,1.20468 -2.25481,1.65246 -2.85715,2.85714 -0.42591,0.85184 0.42592,2.00531 0,2.85714 -0.60233,1.20468 -2.2548,1.65247 -2.85714,2.85715 -0.42592,0.85183 0.42592,2.00531 0,2.85714 -0.60234,1.20468 -2.2548,1.65247 -2.85714,2.85714 -0.42592,0.85184 0,1.90477 0,2.85715 0,1.90476 0.70741,3.94575 0,5.71428 -1.2753,3.18826 -4.43898,5.38317 -5.71429,8.57143 -0.70741,1.76853 0.85184,4.01062 0,5.71429 -1.20467,2.40935 -4.22006,3.47295 -5.71428,5.71428 -0.52829,0.79243 0,1.90476 0,2.85714 0,1.90477 0.46197,3.8664 0,5.71429 -1.03301,4.13201 -4.36742,7.38796 -5.71429,11.42857 -0.30117,0.90351 0,1.90476 0,2.85714 -0.95238,1.90477 -2.18371,3.69399 -2.85714,5.71429 -0.30117,0.90351 0.23098,1.9332 0,2.85714 -0.73044,2.92177 -2.1267,5.64966 -2.85714,8.57143 -0.92395,3.69578 0.92394,7.73279 0,11.42857 -0.32667,1.30666 -2.53048,1.55049 -2.85715,2.85715 -0.69296,2.77183 0.56033,5.76977 0,8.57142 -0.41764,2.08824 -2.1837,3.69399 -2.85714,5.71429 -0.30117,0.90351 0.42592,2.00531 0,2.85714 -0.60234,1.20468 -2.2548,1.65247 -2.85714,2.85715 -0.42592,0.85183 0.30117,1.95363 0,2.85714 -0.67344,2.0203 -2.18371,3.69398 -2.85715,5.71428 -0.30117,0.90351 0,1.90477 0,2.85715 0,1.90476 0,3.80952 0,5.71428 0,1.90477 0.46198,3.8664 0,5.71429 -0.5165,2.066 -2.1837,3.69398 -2.85714,5.71428 -0.30117,0.90351 0.23099,1.9332 0,2.85715 -0.73044,2.92177 -2.2665,5.61822 -2.85714,8.57143 -0.37356,1.86777 0.70741,3.94575 0,5.71428 -1.2753,3.18826 -4.17862,5.50009 -5.71429,8.57143 -8.62823,17.25647 0.41187,1.20969 -2.85714,14.28571 -0.5165,2.06601 -1.90476,3.80953 -2.85714,5.71429 -1.90476,3.80952 -4.36742,7.38796 -5.71429,11.42857 -0.30117,0.90351 0.30117,1.95364 0,2.85714 -0.67343,2.02031 -2.34064,3.64829 -2.85714,5.71429 -0.46197,1.84789 0.37355,3.84651 0,5.71429 -0.59064,2.9532 -2.1267,5.64965 -2.85714,8.57142 -0.88098,3.52391 0.73696,10.60091 0,14.28572 -0.59065,2.95321 -2.26651,5.61822 -2.85715,8.57143 -0.20374,1.01872 0.63659,10.15539 0,11.42857 -0.60234,1.20468 -2.593,1.53643 -2.85714,2.85714 -1.0989,5.49451 1.0989,11.64835 0,17.14286 -0.59064,2.95321 -2.1267,5.64966 -2.85714,8.57143 -0.65792,2.63167 0.85566,6.00443 0,8.57143 -0.67344,2.0203 -2.34064,3.64828 -2.85715,5.71428 -0.46197,1.84789 0,3.80953 0,5.71429 0,6.66666 0,13.33333 0,20 0,18.09524 0,36.19047 0,54.28571 0,16.19048 0,32.38095 0,48.57143 0,5.71429 0,11.42857 0,17.14286 0,1.28673 -0.43476,7.7019 0,8.57143 0.60234,1.20467 2.43123,1.57939 2.85715,2.85714 0.52502,1.57508 0,14.71815 0,17.14286 0,25.85378 -0.90351,-9.1817 2.85714,17.14285 0.53875,3.77124 -0.62628,7.67088 0,11.42857 0.3501,2.10062 2.4395,3.62606 2.85714,5.71429 0.56033,2.80166 -0.56033,5.76977 0,8.57143 0.8353,4.17647 4.36742,7.38796 5.71429,11.42857 0.60234,1.80702 -0.85184,4.01062 0,5.71429 0.60234,1.20467 2.2548,1.65246 2.85714,2.85714 0.94675,1.8935 -0.79821,9.03393 0,11.42857 0.67344,2.02031 2.18371,3.69398 2.85714,5.71429 0.30117,0.9035 -0.42591,2.0053 0,2.85714 0.60234,1.20468 2.43123,1.57939 2.85715,2.85714 0.60234,1.80702 -0.46198,3.8664 0,5.71429 1.06911,4.27645 7.03516,11.21318 8.57143,14.28571 1.34687,2.69374 1.73862,5.77514 2.85714,8.57143 0.79091,1.97727 2.34064,3.64828 2.85714,5.71429 0.46197,1.84789 -0.60234,3.90727 0,5.71428 0.42592,1.27775 2.43123,1.57939 2.85714,2.85714 0.60234,1.80702 -0.60233,3.90727 0,5.71429 0.42592,1.27775 2.25481,1.65247 2.85715,2.85714 0.42591,0.85184 -0.42592,2.00531 0,2.85715 0.60234,1.20467 2.11003,1.73648 2.85714,2.85714 2.36257,3.54385 3.15878,8.02123 5.71429,11.42857 2.64041,3.52056 9.00368,7.79125 11.42857,11.42857 5.41265,-0.32537 1.90476,6.66667 2.85714,8.57143 5.94537,11.89074 -0.19724,-3.05439 5.71429,2.85714 1.50584,1.50585 1.67586,3.94236 2.85714,5.71429 0.74711,1.12066 2.11003,1.73648 2.85714,2.85714 2.36257,3.54385 3.35172,7.88472 5.71429,11.42857 1.49422,2.24133 4.22006,3.47296 5.71428,5.71429 1.18129,1.77192 1.3513,4.20844 2.85715,5.71428 1.50584,1.50585 3.94236,1.67586 5.71428,2.85715 1.12067,0.74711 1.73648,2.11003 2.85714,2.85714 1.77193,1.18128 3.94237,1.67586 5.71429,2.85714 3.36199,2.24133 5.20944,6.3301 8.57143,8.57143 0.79243,0.52829 2.00531,-0.42592 2.85714,0 3.42857,1.71429 5.14286,6.85714 8.57143,8.57143 1.70367,0.85184 4.36742,-1.34687 5.71429,0 0.67343,0.67344 -0.67344,2.18371 0,2.85714 0.67343,0.67344 2.0053,-0.42591 2.85714,0 2.40935,1.20468 3.15878,4.86245 5.71428,5.71429 1.80702,0.60234 3.8664,-0.46197 5.71429,0 2.066,0.5165 3.64828,2.34064 5.71429,2.85714 1.84789,0.46197 3.80952,0 5.71428,0 4.76191,0 9.61628,-0.93388 14.28572,0 2.08823,0.41765 3.61367,2.50704 5.71428,2.85714 3.75769,0.62629 7.61905,0 11.42857,0 5.71429,0 11.42857,0 17.14286,0 2.18118,0 15.34272,0.60005 17.14286,0 2.0203,-0.67343 3.94236,-1.67585 5.71428,-2.85714 1.12067,-0.74711 1.57939,-2.43122 2.85715,-2.85714 1.80701,-0.60234 3.86639,0.46197 5.71428,0 5.17126,1.72208 5.31379,-4.62841 8.57143,-5.71429 2.57143,-0.85714 6,0.85715 8.57143,0 10.35797,-3.45265 2.03342,-1.35561 8.57143,-5.71428 13.81745,-6.90873 -0.15455,0.8302 8.57143,-5.71429 2.74708,-2.06031 5.82434,-3.65397 8.57142,-5.71428 5.71429,-4.28572 0,-2.85715 8.57143,-8.57143 0.79243,-0.52829 2.00531,0.42592 2.85715,0 7.71066,-3.85533 -0.0986,-1.28064 2.85714,-5.71429 5.71428,-8.57143 4.28571,-2.85714 8.57143,-8.57143 2.06031,-2.74708 3.65397,-5.82434 5.71428,-8.57143 1.61625,-2.15499 4.22007,-3.47295 5.71429,-5.71428 9.62249,-14.43373 0.0221,-0.0662 2.85714,-8.57143 0.67344,-2.0203 2.34064,-3.64828 2.85714,-5.71429 3.26901,-13.07602 -5.77109,2.97076 2.85715,-14.28571 1.53567,-3.07134 4.17861,-5.50009 5.71428,-8.57143 8.17694,-16.35388 -1.7752,-1.80323 5.71429,-14.28571 1.7667,-2.94451 4.43898,-5.38317 5.71428,-8.57143 0.70742,-1.76853 -0.60233,-3.90727 0,-5.71429 0.42592,-1.27775 1.90477,-1.90476 2.85715,-2.85714 0.95238,-1.90476 2.34064,-3.64828 2.85714,-5.71429 0.46197,-1.84789 -0.60234,-3.90727 0,-5.71428 0.42592,-1.27775 2.11003,-1.73648 2.85714,-2.85714 5.41265,0.32537 1.90476,-6.66667 2.85715,-8.57143 1.53566,-3.07134 4.6284,-5.31379 5.71428,-8.57143 0.90351,-2.71052 -0.90351,-5.86091 0,-8.57143 1.08588,-3.25764 4.17862,-5.50009 5.71429,-8.57143 0.85183,-1.70367 -0.60234,-3.90727 0,-5.71428 1.34687,-4.04061 4.68128,-7.29657 5.71428,-11.42858 0.92395,-3.69578 -0.92394,-7.73279 0,-11.42857 3.28306,-13.13224 2.85715,-0.64824 2.85715,-8.57143 0,-2.85714 0,-5.71428 0,-8.57142 0,-1.90477 -0.60234,-3.90727 0,-5.71429 0.67343,-2.0203 2.43949,-3.62605 2.85714,-5.71429 0.56033,-2.80165 0,-5.71428 0,-8.57142 0,-7.61905 0,-15.2381 0,-22.85715 0,-20 0,-40 0,-60 0,-14.28571 0,-28.57143 0,-42.85714 0,-2.85714 0,-5.71429 0,-8.57143 0,-2.85714 -0.56033,-5.76977 0,-8.57143 0.41765,-2.08823 2.2721,-3.66663 2.85714,-5.71428 5.77745,-6.06464 1.46866,-15.91472 2.85714,-22.85715 0.41765,-2.08823 2.34065,-3.64828 2.85715,-5.71428 0.46197,-1.84789 0,-3.80952 0,-5.71429 0,-5.71428 0,-11.42857 0,-17.14285 0,-15.2381 0,-30.47619 0,-45.71429 0,-17.79611 0.85183,7.11632 -2.85715,-11.42857 -0.56033,-2.80166 0,-5.71429 0,-8.57143 0,-4.7619 0,-9.52381 0,-14.28571 0,-13.33334 0,-26.66667 0,-40 0,-1.07337 -0.0713,-14.21441 0,-14.28572 0.67344,-0.67343 2.18371,0.67344 2.85715,0 0.67343,-0.67343 0,-1.90476 0,-2.85714 0,-5.71429 0,-11.42857 0,-17.14286 0,-7.61905 0,-15.23809 0,-22.85714 0,-0.67894 0.32018,-10.7882 0,-11.42857 -0.60234,-1.20468 -2.25481,-1.65247 -2.85715,-2.85715 -0.42591,-0.85183 0,-1.90476 0,-2.85714 0,-1.90476 0.46198,-3.86639 0,-5.71428 -0.5165,-2.06601 -2.1837,-3.69398 -2.85714,-5.71429 -0.60234,-1.80702 0,-3.80952 0,-5.71429 0,-2.42397 0.47391,-15.24724 0,-17.14285 -0.5165,-2.06601 -2.18371,-3.69398 -2.85714,-5.71429 -0.60234,-1.80701 0.85183,-4.01061 0,-5.71428 -0.60234,-1.20468 -2.43123,-1.57939 -2.85714,-2.85715 -0.60234,-1.80701 0.60233,-3.90727 0,-5.71428 -0.42592,-1.27776 -2.43123,-1.57939 -2.85715,-2.85715 -0.78878,-2.36634 0.90849,-12.46873 0,-14.28571 -0.60234,-1.20468 -2.2548,-1.65247 -2.85714,-2.85714 -0.42592,-0.85184 0,-1.90476 0,-2.85715 0,-1.90476 0.60234,-3.90727 0,-5.71428 -0.42592,-1.27775 -2.2548,-1.65247 -2.85714,-2.85714 -0.42592,-0.85184 0.42591,-2.00531 0,-2.85715 -0.60234,-1.20467 -2.25481,-1.65246 -2.85715,-2.85714 -0.51661,-1.03324 0,-12.29846 0,-14.28571 0,-0.95238 0.67344,-2.18371 0,-2.85715 -0.67343,-0.67343 -2.1837,0.67344 -2.85714,0 -0.67343,-0.67343 0,-1.90476 0,-2.85714 0,-0.95238 0,-1.90476 0,-2.85714 0,-1.98726 -0.51662,-13.25248 0,-14.28572 0.60234,-1.20467 2.25481,-1.65246 2.85714,-2.85714 0.43477,-0.86953 0,-7.28469 0,-8.57143 0,-1.90476 0,-3.80952 0,-5.71428 0,-0.95238 -0.95238,-2.85715 0,-2.85715 0.95239,0 0.42592,3.70898 0,2.85715 -2.29363,-4.58728 -3.80952,-9.52381 -5.71428,-14.28572 z"
       id="path3336"
       inkscape:connector-curvature="0" />
  </g>
</svg>
